<svg width="40" height="40" viewBox="0 0 40 40" fill="none" xmlns="http://www.w3.org/2000/svg">
<g clip-path="url(#clip0_229_422)">
<path fill-rule="evenodd" clip-rule="evenodd" d="M7.14286 0C3.19797 0 0 3.19797 0 7.14286V32.8571C0 36.802 3.19797 40 7.14286 40H32.8571C36.802 40 40 36.802 40 32.8571V7.14286C40 3.19797 36.802 0 32.8571 0H7.14286ZM31.3883 12.0342C31.3883 13.9277 29.8534 15.4627 27.9598 15.4627C26.0663 15.4627 24.5313 13.9277 24.5313 12.0342C24.5313 10.1406 26.0663 8.6056 27.9598 8.6056C29.8534 8.6056 31.3883 10.1406 31.3883 12.0342ZM27.9598 31.3946C29.8534 31.3946 31.3883 29.8597 31.3883 27.9661C31.3883 26.0725 29.8534 24.5375 27.9598 24.5375C26.0663 24.5375 24.5313 26.0725 24.5313 27.9661C24.5313 29.8597 26.0663 31.3946 27.9598 31.3946ZM15.4689 12.0342C15.4689 13.9277 13.9338 15.4627 12.0403 15.4627C10.1467 15.4627 8.61171 13.9277 8.61171 12.0342C8.61171 10.1406 10.1467 8.6056 12.0403 8.6056C13.9338 8.6056 15.4689 10.1406 15.4689 12.0342ZM12.0403 31.3946C13.9338 31.3946 15.4689 29.8597 15.4689 27.9661C15.4689 26.0725 13.9338 24.5375 12.0403 24.5375C10.1467 24.5375 8.61171 26.0725 8.61171 27.9661C8.61171 29.8597 10.1467 31.3946 12.0403 31.3946Z" fill="#020404"/>
</g>
<defs>
<clipPath id="clip0_229_422">
<rect width="40" height="40" fill="white"/>
</clipPath>
</defs>
</svg>
