<svg width="170" height="170" viewBox="0 0 170 170" fill="none" xmlns="http://www.w3.org/2000/svg">
<g clip-path="url(#clip0_233_429)">
<path fill-rule="evenodd" clip-rule="evenodd" d="M30.3571 0C13.5914 0 0 13.5914 0 30.3571V139.643C0 156.409 13.5914 170 30.3571 170H139.643C156.409 170 170 156.409 170 139.643V30.3571C170 13.5914 156.409 0 139.643 0H30.3571ZM133.4 51.1452C133.4 59.1928 126.877 65.7167 118.829 65.7167C110.782 65.7167 104.258 59.1928 104.258 51.1452C104.258 43.0977 110.782 36.5738 118.829 36.5738C126.877 36.5738 133.4 43.0977 133.4 51.1452ZM118.829 133.427C126.877 133.427 133.4 126.904 133.4 118.856C133.4 110.808 126.877 104.284 118.829 104.284C110.782 104.284 104.258 110.808 104.258 118.856C104.258 126.904 110.782 133.427 118.829 133.427ZM65.7426 51.1452C65.7426 59.1928 59.2188 65.7167 51.1712 65.7167C43.1237 65.7167 36.5998 59.1928 36.5998 51.1452C36.5998 43.0977 43.1237 36.5738 51.1712 36.5738C59.2188 36.5738 65.7426 43.0977 65.7426 51.1452ZM51.1712 133.427C59.2188 133.427 65.7426 126.904 65.7426 118.856C65.7426 110.808 59.2188 104.284 51.1712 104.284C43.1237 104.284 36.5998 110.808 36.5998 118.856C36.5998 126.904 43.1237 133.427 51.1712 133.427Z" fill="white"/>
</g>
<defs>
<clipPath id="clip0_233_429">
<rect width="170" height="170" fill="white"/>
</clipPath>
</defs>
</svg>
