<svg width="189" height="50" viewBox="0 0 189 50" fill="none" xmlns="http://www.w3.org/2000/svg">
<g clip-path="url(#clip0_254_118)">
<path fill-rule="evenodd" clip-rule="evenodd" d="M8.91657 0C3.99209 0 0 3.99209 0 8.91657V41.0162C0 45.9407 3.99209 49.9328 8.91657 49.9328H41.0162C45.9407 49.9328 49.9328 45.9407 49.9328 41.0162V8.91657C49.9328 3.99209 45.9407 0 41.0162 0H8.91657ZM39.1826 15.0225C39.1826 17.3862 37.2666 19.3024 34.9028 19.3024C32.5391 19.3024 30.6229 17.3862 30.6229 15.0225C30.6229 12.6587 32.5391 10.7425 34.9028 10.7425C37.2666 10.7425 39.1826 12.6587 39.1826 15.0225ZM34.9028 39.1905C37.2666 39.1905 39.1826 37.2745 39.1826 34.9106C39.1826 32.5469 37.2666 30.6307 34.9028 30.6307C32.5391 30.6307 30.6229 32.5469 30.6229 34.9106C30.6229 37.2745 32.5391 39.1905 34.9028 39.1905ZM19.3101 15.0225C19.3101 17.3862 17.3939 19.3024 15.0301 19.3024C12.6664 19.3024 10.7502 17.3862 10.7502 15.0225C10.7502 12.6587 12.6664 10.7425 15.0301 10.7425C17.3939 10.7425 19.3101 12.6587 19.3101 15.0225ZM15.0301 39.1905C17.3939 39.1905 19.3101 37.2745 19.3101 34.9106C19.3101 32.5469 17.3939 30.6307 15.0301 30.6307C12.6664 30.6307 10.7502 32.5469 10.7502 34.9106C10.7502 37.2745 12.6664 39.1905 15.0301 39.1905Z" fill="white"/>
</g>
<path d="M66.0003 33.6287V16.1011H72.5412C74.3808 16.1011 75.9479 16.4077 77.2425 17.0209C78.537 17.6341 79.525 18.588 80.2063 19.8825C80.9047 21.1601 81.2539 22.8208 81.2539 24.8649C81.2539 26.8748 80.9047 28.5271 80.2063 29.8217C79.525 31.1162 78.537 32.0786 77.2425 32.7088C75.9479 33.3221 74.3808 33.6287 72.5412 33.6287H66.0003ZM68.4276 31.5335H72.4901C73.461 31.5335 74.3297 31.4143 75.0963 31.1758C75.8628 30.9203 76.5186 30.5371 77.0636 30.0261C77.6087 29.515 78.0175 28.8593 78.2901 28.0587C78.5796 27.2411 78.7244 26.2701 78.7244 25.1459V24.6349C78.7244 23.4766 78.5796 22.4972 78.2901 21.6966C78.0175 20.879 77.6087 20.2147 77.0636 19.7037C76.5356 19.1927 75.8883 18.8179 75.1218 18.5795C74.3553 18.324 73.4781 18.1962 72.4901 18.1962H68.4276V31.5335ZM83.9974 33.6287V16.1011H86.4247V33.6287H83.9974ZM97.5289 33.9353C95.7404 33.9353 94.2244 33.6116 92.9809 32.9644C91.7375 32.3 90.7836 31.3036 90.1193 29.975C89.472 28.6293 89.1484 26.9259 89.1484 24.8649C89.1484 21.8159 89.8893 19.5419 91.3713 18.0429C92.8532 16.544 94.9143 15.7945 97.5545 15.7945C99.0534 15.7945 100.382 16.0415 101.54 16.5354C102.699 17.0124 103.601 17.7448 104.249 18.7328C104.913 19.7037 105.245 20.9301 105.245 22.412H102.792C102.792 21.39 102.571 20.5469 102.128 19.8825C101.702 19.2182 101.097 18.7243 100.314 18.4006C99.5304 18.0599 98.6105 17.8896 97.5545 17.8896C96.328 17.8896 95.272 18.1281 94.3862 18.605C93.5005 19.082 92.8276 19.8229 92.3677 20.8279C91.9078 21.8159 91.6779 23.0934 91.6779 24.6605V25.197C91.6779 26.7471 91.9078 28.0161 92.3677 29.004C92.8276 29.975 93.492 30.6904 94.3607 31.1503C95.2464 31.6102 96.311 31.8401 97.5545 31.8401C98.6446 31.8401 99.5815 31.6783 100.365 31.3547C101.166 31.031 101.779 30.5371 102.205 29.8728C102.648 29.1914 102.869 28.3397 102.869 27.3177H105.245C105.245 28.8337 104.904 30.0772 104.223 31.0481C103.559 32.019 102.648 32.7429 101.489 33.2199C100.331 33.6968 99.0108 33.9353 97.5289 33.9353ZM107.865 33.6287V16.1011H121.356V18.1962H110.292V23.6129H120.231V25.708H110.292V31.5335H121.509V33.6287H107.865ZM126.945 33.6287L133.869 16.1011H137.063L144.012 33.6287H141.381L139.669 29.2851H131.135L129.449 33.6287H126.945ZM131.927 27.2155H138.851L136.73 21.7222C136.679 21.5689 136.603 21.356 136.5 21.0834C136.398 20.8109 136.288 20.5128 136.168 20.1891C136.049 19.8485 135.93 19.5078 135.811 19.1671C135.691 18.8094 135.581 18.4858 135.478 18.1962H135.325C135.206 18.5369 135.07 18.9287 134.916 19.3715C134.763 19.8144 134.61 20.2488 134.456 20.6746C134.303 21.0834 134.175 21.4326 134.073 21.7222L131.927 27.2155ZM153.183 33.9353C150.356 33.9353 148.201 33.1943 146.719 31.7124C145.254 30.2305 144.522 27.948 144.522 24.8649C144.522 22.8549 144.863 21.1771 145.544 19.8314C146.225 18.4858 147.23 17.4808 148.559 16.8165C149.887 16.1352 151.506 15.7945 153.413 15.7945C154.606 15.7945 155.687 15.9222 156.658 16.1777C157.629 16.4332 158.464 16.825 159.162 17.3531C159.878 17.8641 160.423 18.5113 160.798 19.2949C161.189 20.0784 161.385 21.0068 161.385 22.0799H158.907C158.907 21.3304 158.771 20.6916 158.498 20.1636C158.225 19.6185 157.834 19.1756 157.323 18.835C156.829 18.4943 156.25 18.2558 155.585 18.1196C154.921 17.9663 154.214 17.8896 153.465 17.8896C152.443 17.8896 151.531 18.0174 150.731 18.2729C149.93 18.5284 149.257 18.9287 148.712 19.4737C148.167 20.0188 147.75 20.7172 147.46 21.5689C147.171 22.4206 147.026 23.434 147.026 24.6094V25.1459C147.026 26.7301 147.264 28.0161 147.741 29.004C148.235 29.992 148.942 30.7159 149.862 31.1758C150.782 31.6187 151.889 31.8401 153.183 31.8401C154.495 31.8401 155.577 31.6613 156.428 31.3036C157.28 30.9288 157.91 30.3667 158.319 29.6172C158.745 28.8678 158.958 27.9224 158.958 26.7812V26.4745H152.775V24.405H161.411V33.6287H159.571L159.316 31.4058C158.856 32.002 158.311 32.4874 157.68 32.8621C157.05 33.2369 156.352 33.5094 155.585 33.6798C154.836 33.8501 154.035 33.9353 153.183 33.9353ZM164.857 33.6287V16.1011H174.081C175.273 16.1011 176.261 16.3225 177.045 16.7654C177.846 17.1912 178.442 17.7959 178.834 18.5795C179.225 19.346 179.421 20.2317 179.421 21.2367C179.421 22.4461 179.149 23.4852 178.604 24.3539C178.058 25.2226 177.309 25.8443 176.355 26.219L180.034 33.6287H177.377L173.953 26.6534H167.285V33.6287H164.857ZM167.285 24.5838H173.851C174.822 24.5838 175.58 24.2857 176.125 23.6896C176.687 23.0934 176.968 22.2758 176.968 21.2367C176.968 20.5894 176.849 20.0444 176.611 19.6015C176.372 19.1586 176.023 18.8179 175.563 18.5795C175.103 18.324 174.533 18.1962 173.851 18.1962H167.285V24.5838ZM182.655 33.6287V16.1011H185.082V33.6287H182.655Z" fill="white"/>
<defs>
<clipPath id="clip0_254_118">
<rect width="49.9328" height="49.9328" fill="white"/>
</clipPath>
</defs>
</svg>
