<svg width="236" height="50" viewBox="0 0 236 50" fill="none" xmlns="http://www.w3.org/2000/svg">
<g clip-path="url(#clip0_236_719)">
<path fill-rule="evenodd" clip-rule="evenodd" d="M7.14286 5C3.19797 5 0 8.19797 0 12.1429V37.8571C0 41.802 3.19797 45 7.14286 45H32.8571C36.802 45 40 41.802 40 37.8571V12.1429C40 8.19797 36.802 5 32.8571 5H7.14286ZM31.3883 17.0342C31.3883 18.9277 29.8534 20.4627 27.9598 20.4627C26.0663 20.4627 24.5313 18.9277 24.5313 17.0342C24.5313 15.1406 26.0663 13.6056 27.9598 13.6056C29.8534 13.6056 31.3883 15.1406 31.3883 17.0342ZM27.9598 36.3946C29.8534 36.3946 31.3883 34.8597 31.3883 32.9661C31.3883 31.0725 29.8534 29.5375 27.9598 29.5375C26.0663 29.5375 24.5313 31.0725 24.5313 32.9661C24.5313 34.8597 26.0663 36.3946 27.9598 36.3946ZM15.4689 17.0342C15.4689 18.9277 13.9338 20.4627 12.0403 20.4627C10.1467 20.4627 8.61171 18.9277 8.61171 17.0342C8.61171 15.1406 10.1467 13.6056 12.0403 13.6056C13.9338 13.6056 15.4689 15.1406 15.4689 17.0342ZM12.0403 36.3946C13.9338 36.3946 15.4689 34.8597 15.4689 32.9661C15.4689 31.0725 13.9338 29.5375 12.0403 29.5375C10.1467 29.5375 8.61171 31.0725 8.61171 32.9661C8.61171 34.8597 10.1467 36.3946 12.0403 36.3946Z" fill="#020404"/>
</g>
<path d="M58.2736 37V11.7263H67.7052C70.3579 11.7263 72.6175 12.1684 74.4842 13.0526C76.3508 13.9368 77.7754 15.3123 78.7579 17.1789C79.7649 19.0211 80.2684 21.4158 80.2684 24.3632C80.2684 27.2614 79.7649 29.6439 78.7579 31.5105C77.7754 33.3772 76.3508 34.7649 74.4842 35.6737C72.6175 36.5579 70.3579 37 67.7052 37H58.2736ZM61.7736 33.9789H67.6315C69.0315 33.9789 70.2842 33.807 71.3894 33.4632C72.4947 33.0947 73.4403 32.5421 74.2263 31.8053C75.0122 31.0684 75.6017 30.1228 75.9947 28.9684C76.4122 27.7895 76.621 26.3895 76.621 24.7684V24.0316C76.621 22.3614 76.4122 20.9491 75.9947 19.7947C75.6017 18.6158 75.0122 17.6579 74.2263 16.9211C73.4649 16.1842 72.5315 15.6439 71.4263 15.3C70.321 14.9316 69.0561 14.7474 67.6315 14.7474H61.7736V33.9789ZM84.2243 37V11.7263H87.7243V37H84.2243ZM103.736 37.4421C101.157 37.4421 98.971 36.9754 97.178 36.0421C95.3851 35.0842 94.0096 33.6474 93.0517 31.7316C92.1184 29.7912 91.6517 27.3351 91.6517 24.3632C91.6517 19.9667 92.7202 16.6877 94.857 14.5263C96.9938 12.3649 99.9658 11.2842 103.773 11.2842C105.934 11.2842 107.85 11.6403 109.52 12.3526C111.19 13.0403 112.492 14.0965 113.425 15.5211C114.383 16.9211 114.862 18.6895 114.862 20.8263H111.325C111.325 19.3526 111.006 18.1368 110.368 17.1789C109.753 16.2211 108.882 15.5088 107.752 15.0421C106.622 14.5509 105.296 14.3053 103.773 14.3053C102.004 14.3053 100.482 14.6491 99.2044 15.3368C97.9272 16.0246 96.957 17.093 96.2938 18.5421C95.6307 19.9667 95.2991 21.8088 95.2991 24.0684V24.8421C95.2991 27.0772 95.6307 28.907 96.2938 30.3316C96.957 31.7316 97.9149 32.7632 99.1675 33.4263C100.445 34.0895 101.98 34.4211 103.773 34.4211C105.345 34.4211 106.696 34.1877 107.825 33.7211C108.98 33.2544 109.864 32.5421 110.478 31.5842C111.117 30.6018 111.436 29.3737 111.436 27.9H114.862C114.862 30.086 114.371 31.8789 113.389 33.2789C112.431 34.6789 111.117 35.7228 109.446 36.4105C107.776 37.0982 105.873 37.4421 103.736 37.4421ZM118.64 37V11.7263H138.093V14.7474H122.14V22.5579H136.472V25.5789H122.14V33.9789H138.314V37H118.64ZM146.152 37L156.136 11.7263H160.741L170.762 37H166.967L164.499 30.7368H152.194L149.762 37H146.152ZM153.336 27.7526H163.32L160.262 19.8316C160.188 19.6105 160.078 19.3035 159.931 18.9105C159.783 18.5175 159.623 18.0877 159.452 17.6211C159.28 17.1298 159.108 16.6386 158.936 16.1474C158.764 15.6316 158.604 15.1649 158.457 14.7474H158.236C158.064 15.2386 157.867 15.8035 157.646 16.4421C157.425 17.0807 157.204 17.707 156.983 18.3211C156.762 18.9105 156.578 19.414 156.431 19.8316L153.336 27.7526ZM183.986 37.4421C179.909 37.4421 176.802 36.3737 174.665 34.2368C172.553 32.1 171.497 28.8088 171.497 24.3632C171.497 21.4649 171.988 19.0456 172.971 17.1053C173.953 15.1649 175.402 13.7158 177.318 12.7579C179.234 11.7754 181.567 11.2842 184.318 11.2842C186.037 11.2842 187.597 11.4684 188.997 11.8368C190.397 12.2053 191.6 12.7702 192.607 13.5316C193.639 14.2684 194.425 15.2018 194.965 16.3316C195.53 17.4614 195.813 18.8 195.813 20.3474H192.239C192.239 19.2667 192.043 18.3456 191.65 17.5842C191.257 16.7982 190.692 16.1596 189.955 15.6684C189.243 15.1772 188.407 14.8333 187.45 14.6368C186.492 14.4158 185.472 14.3053 184.392 14.3053C182.918 14.3053 181.604 14.4895 180.45 14.8579C179.295 15.2263 178.325 15.8035 177.539 16.5895C176.753 17.3754 176.151 18.3825 175.734 19.6105C175.316 20.8386 175.107 22.3 175.107 23.9947V24.7684C175.107 27.0526 175.451 28.907 176.139 30.3316C176.851 31.7561 177.871 32.8 179.197 33.4632C180.523 34.1018 182.12 34.4211 183.986 34.4211C185.878 34.4211 187.437 34.1632 188.665 33.6474C189.893 33.107 190.802 32.2965 191.392 31.2158C192.006 30.1351 192.313 28.7719 192.313 27.1263V26.6842H183.397V23.7H195.85V37H193.197L192.829 33.7947C192.165 34.6544 191.379 35.3544 190.471 35.8947C189.562 36.4351 188.555 36.8281 187.45 37.0737C186.369 37.3193 185.214 37.4421 183.986 37.4421ZM200.819 37V11.7263H214.119C215.839 11.7263 217.263 12.0456 218.393 12.6842C219.548 13.2982 220.407 14.1702 220.972 15.3C221.537 16.4053 221.819 17.6825 221.819 19.1316C221.819 20.8754 221.427 22.3737 220.641 23.6263C219.855 24.8789 218.774 25.7754 217.398 26.3158L222.704 37H218.872L213.935 26.9421H204.319V37H200.819ZM204.319 23.9579H213.788C215.188 23.9579 216.281 23.5281 217.067 22.6684C217.877 21.8088 218.283 20.6298 218.283 19.1316C218.283 18.1982 218.111 17.4123 217.767 16.7737C217.423 16.1351 216.919 15.6439 216.256 15.3C215.593 14.9316 214.77 14.7474 213.788 14.7474H204.319V23.9579ZM226.482 37V11.7263H229.982V37H226.482Z" fill="black"/>
<defs>
<clipPath id="clip0_236_719">
<rect width="40" height="40" fill="white" transform="translate(0 5)"/>
</clipPath>
</defs>
</svg>
