<svg width="16" height="15" viewBox="0 0 16 15" fill="none" xmlns="http://www.w3.org/2000/svg">
<path fill-rule="evenodd" clip-rule="evenodd" d="M3.22962 3.28756C2.84646 3.28756 2.53586 3.59817 2.53586 3.98133V10.9189C2.53586 11.3021 2.84646 11.6127 3.22962 11.6127H12.9423C13.3254 11.6127 13.636 11.3021 13.636 10.9189V3.98133C13.636 3.59817 13.3254 3.28756 12.9423 3.28756H3.22962ZM1.61084 3.98133C1.61084 3.0873 2.33559 2.36255 3.22962 2.36255H12.9423C13.8363 2.36255 14.5611 3.0873 14.5611 3.98133V10.9189C14.5611 11.813 13.8363 12.5377 12.9423 12.5377H3.22962C2.33559 12.5377 1.61084 11.813 1.61084 10.9189V3.98133Z" fill="#696A75"/>
<path fill-rule="evenodd" clip-rule="evenodd" d="M3.5583 4.39114C3.71512 4.18951 4.0057 4.15318 4.20733 4.31001L8.08595 7.32671L11.9646 4.31001C12.1662 4.15318 12.4568 4.18951 12.6136 4.39114C12.7704 4.59276 12.7341 4.88335 12.5325 5.04017L8.3699 8.27772C8.20289 8.40763 7.96901 8.40763 7.802 8.27772L3.63943 5.04017C3.4378 4.88335 3.40147 4.59276 3.5583 4.39114Z" fill="#696A75"/>
</svg>
